<svg xmlns="http://www.w3.org/2000/svg" viewBox="0 0 235.3 102.45"><defs><style>.cls-1{fill:#353535;}.cls-2{fill:#0e9e54;}.cls-3{fill:#ef4b23;}.cls-4{fill:#1298bb;}</style></defs><g id="Layer_2" data-name="Layer 2"><g id="דף_הבית" data-name="דף הבית"><path class="cls-1" d="M.79,57.25a2.71,2.71,0,0,1-.79-2V19.67a2.64,2.64,0,0,1,.79-2.06,2.8,2.8,0,0,1,2-.73H8.13a2.7,2.7,0,0,1,2.8,2.79V55.25a2.75,2.75,0,0,1-.79,2,2.72,2.72,0,0,1-2,.79H2.79A2.68,2.68,0,0,1,.79,57.25Z"/><path class="cls-1" d="M35.09,36.18a21.55,21.55,0,0,0,1.09,7.65,5.45,5.45,0,0,0,3.76,3.52l4.62,1.22a2.36,2.36,0,0,1,1.52,1.27,5.32,5.32,0,0,1,.54,2.49v2.79a2,2,0,0,1-1.33,2,5.12,5.12,0,0,1-2.92.36l-4.73-1Q25.49,53.79,25.5,35.82V19.67a2.64,2.64,0,0,1,.79-2.06,2.8,2.8,0,0,1,2-.73H50.63q13.35,0,20.28,7.77t7.4,22.22c.08.81.12,2.35.12,4.61s0,3.93-.12,4.74q-.48,14.44-7.4,22.22T50.63,86.21H29.75a2.76,2.76,0,0,1-2-.79,2.72,2.72,0,0,1-.79-2v-4a2.72,2.72,0,0,1,.79-2,2.76,2.76,0,0,1,2-.79H50q8.5,0,13.12-5.46t5-15.42c.08-.81.13-2.23.13-4.25s0-3.32-.13-4.13q-.24-9.94-4.91-15.42T50,26.47H35.09Z"/><path class="cls-1" d="M135.8,20.46A24.52,24.52,0,0,1,145,30.72a35,35,0,0,1,3.34,15.78V83.41a2.7,2.7,0,0,1-2.79,2.8H114.25a2.52,2.52,0,0,1-1.94-.79,2.84,2.84,0,0,1-.73-2V79.53a2.84,2.84,0,0,1,.73-2,2.52,2.52,0,0,1,1.94-.78h23.43V47.23q0-9.23-4.67-15a14.59,14.59,0,0,0-11.84-5.77H108.3L99,83.29a3.17,3.17,0,0,1-1,2.07,2.92,2.92,0,0,1-2,.85h-5.1a2.3,2.3,0,0,1-1.89-.85,2.81,2.81,0,0,1-.54-2.07L98.1,26.47H91.91a2.7,2.7,0,0,1-2.79-2.79v-4a2.7,2.7,0,0,1,2.79-2.79h30.47A25.3,25.3,0,0,1,135.8,20.46Z"/><path class="cls-1" d="M163.12,57.25a2.71,2.71,0,0,1-.79-2V19.67a2.64,2.64,0,0,1,.79-2.06,2.8,2.8,0,0,1,2-.73h5.34a2.7,2.7,0,0,1,2.8,2.79V55.25a2.75,2.75,0,0,1-.79,2,2.72,2.72,0,0,1-2,.79h-5.34A2.68,2.68,0,0,1,163.12,57.25Z"/><path class="cls-1" d="M223,20a19,19,0,0,1,9.41,10.08Q235.3,37,235.3,48.57q0,15.54-7.65,24.22A45.05,45.05,0,0,1,207.74,85.6l-5.1,1.7a2.12,2.12,0,0,1-.85.12,2.16,2.16,0,0,1-1.52-.61,2.19,2.19,0,0,1-.67-1.7V79.77c0-1.46.89-2.55,2.67-3.28L207,74.67a28,28,0,0,0,12.87-9.1q4.49-6,4.49-17.49,0-8.13-1.94-12.81a12.45,12.45,0,0,0-6.37-6.74q-4.44-2.05-12.21-2.06h-4.13l-11.17-.12a2.86,2.86,0,0,1-2-.73,2.5,2.5,0,0,1-.79-1.94V2.79A2.7,2.7,0,0,1,188.55,0h4.86a2.49,2.49,0,0,1,1.94.79,2.82,2.82,0,0,1,.73,2V16.88h9.35Q216.49,16.88,223,20Z"/><path class="cls-2" d="M203.08,100.45a2.9,2.9,0,1,1,2.89-2.9A2.9,2.9,0,0,1,203.08,100.45Z"/><path class="cls-2" d="M203.08,96.66a.9.9,0,1,1-.9.89.89.89,0,0,1,.9-.89m0-4A4.9,4.9,0,1,0,208,97.55a4.89,4.89,0,0,0-4.89-4.89Z"/><path class="cls-3" d="M51.55,41.72a2.89,2.89,0,1,1,2.9-2.89A2.9,2.9,0,0,1,51.55,41.72Z"/><path class="cls-3" d="M51.55,37.94a.89.89,0,1,1-.89.89.9.9,0,0,1,.89-.89m0-4a4.89,4.89,0,1,0,4.9,4.89,4.89,4.89,0,0,0-4.9-4.89Z"/><path class="cls-4" d="M51.55,100.45a2.9,2.9,0,1,1,2.9-2.9A2.9,2.9,0,0,1,51.55,100.45Z"/><path class="cls-4" d="M51.55,96.66a.9.9,0,1,1-.89.89.9.9,0,0,1,.89-.89m0-4a4.9,4.9,0,1,0,4.9,4.89,4.89,4.89,0,0,0-4.9-4.89Z"/></g></g></svg>