<?xml version="1.0" encoding="utf-8"?>
<!-- Generator: Adobe Illustrator 25.1.0, SVG Export Plug-In . SVG Version: 6.00 Build 0)  -->
<svg version="1.1" id="Layer_1" xmlns="http://www.w3.org/2000/svg" xmlns:xlink="http://www.w3.org/1999/xlink" x="0px" y="0px"
	 viewBox="0 0 43 63" style="enable-background:new 0 0 43 63;" xml:space="preserve">
<style type="text/css">
	.st0{fill:#FFFFFF;}
</style>
<g>
	<path class="st0" d="M14,35.7c-7.4,0-13.4,6-13.4,13.4s6,13.4,13.4,13.4H14c7.4,0,13.4-6,13.4-13.4C27.4,41.7,21.4,35.7,14,35.7z"
		/>
	<path class="st0" d="M42.5,34.3L42.5,34.3c-0.5-0.5-1.6-0.8-2.9-0.9c0.6-0.8,1.1-1.7,1.1-2.8c0-2.4-1.9-4.3-4.3-4.3
		c-2.4,0-4.3,1.9-4.3,4.3v0c0,1.2,0.5,2.3,1.3,3c-2.5,0.3-4.6,0.7-4.6,0.7s4.3-10.1,5.3-12.4c0.9-1.7,0.2-3.8-1.5-4.6
		c-0.1-0.1-0.3-0.1-0.4-0.2c-1.8-0.8-7.1-1.4-7.4-1.4c-1-0.1-14.1-0.8-18.1,3.1C4.9,20.3,4,22.5,4,24.9C4.3,28,5.3,31,6.8,33.7
		C7.6,35.3,7.9,36,9.2,36c1.2,0.1,2.3-0.8,2.4-2.1c0-0.1,0-0.3,0-0.4c0-1.6-2.3-4.1-2.8-9.2c0.1-0.9,0.5-1.7,1.2-2.3
		c1.1-1,7.7-1.8,10.2-1.9c0,0.1,0,0.1,0,0.2l-5.3,13.4c4.2,0,8.1,2,10.6,5.3c0.2,0.2,0.9,1.4,0.9,1.4h8.5c0,0.2-5.2,11.6-5.9,13.2
		s-0.8,3.2,1.3,3.9c2.6,1,4.3-2.1,5.3-4.3C37.5,48.9,44.8,36.6,42.5,34.3z"/>
	<path class="st0" d="M31.9,15.3c3.7,0.7,7.5-3,8.1-6.7h-0.1c1-3.6-1.1-7.4-4.8-8.4S27.8,1.4,26.8,5c-0.1,0.4-0.2,0.8-0.2,1.3
		C25.9,10,28.2,14.7,31.9,15.3z"/>
</g>
</svg>
