<svg xmlns="http://www.w3.org/2000/svg" viewBox="0 0 115.57 81.24"><defs><style>.cls-1{fill:#fff;}</style></defs><g id="Layer_2" data-name="Layer 2"><g id="מצב_בראותי_1" data-name="מצב בראותי 1"><path class="cls-1" d="M78.79,70.83l-1.19,1a26.47,26.47,0,0,1-16.44,5.76H20.51a1.85,1.85,0,1,0,0,3.69H61.16A30.17,30.17,0,0,0,79.9,74.67l1.19-1a1.84,1.84,0,1,0-2.3-2.88Z"/><path class="cls-1" d="M113.73,77.55H95.56a.5.5,0,0,1-.37-.19L79.28,55.21a.21.21,0,0,1,.06-.31,6.45,6.45,0,0,0-.32-11L54.9,30a.87.87,0,0,1-.3-.33,10.11,10.11,0,0,0-16.19-3.09,1.39,1.39,0,0,1-.38.25c-8.25,3.3-23.46,10.91-30.32,24.12a6.44,6.44,0,0,0,1.6,7.91.29.29,0,0,1,.07.35L.21,76.61A1.85,1.85,0,0,0,1,79.1a1.91,1.91,0,0,0,.86.21,1.85,1.85,0,0,0,1.63-1L12.86,60.5a.35.35,0,0,1,.34-.17l.23,0a6.46,6.46,0,0,0,5.74-3.48c2.86-5.51,8.13-9.81,13.34-13,.11-.06.18,0,.15.11L28.29,62.86A10.15,10.15,0,0,0,35.88,75c.77.18,25.33-.08,26.45-.08a6.45,6.45,0,1,0,0-12.9H49.52a.17.17,0,0,1-.18-.22l4.07-17.54a.15.15,0,0,1,.25-.11L72.57,55.1a6.38,6.38,0,0,0,2.46.81.58.58,0,0,1,.36.21L92.88,80.47a1.87,1.87,0,0,0,1.5.77h19.35a1.85,1.85,0,0,0,0-3.69Z"/><path class="cls-1" d="M48.49,22.18C54,23.82,60.36,19,62,13.43A10.45,10.45,0,0,0,42,7.48C40.32,13,43,20.54,48.49,22.18Z"/></g></g></svg>