<?xml version="1.0" encoding="utf-8"?>
<!-- Generator: Adobe Illustrator 25.1.0, SVG Export Plug-In . SVG Version: 6.00 Build 0)  -->
<svg version="1.1" id="Layer_1" xmlns="http://www.w3.org/2000/svg" xmlns:xlink="http://www.w3.org/1999/xlink" x="0px" y="0px"
	 viewBox="0 0 52.9 68.1" style="enable-background:new 0 0 52.9 68.1;" xml:space="preserve">
<style type="text/css">
	.st0{fill:#FFFFFF;}
</style>
<g>
	<path class="st0" d="M43.1,39.1c2.5-1.7,0.5-5-1.5-8.8l-0.1-0.2C37.7,22.9,28.1,18.8,26.2,18c-3.9-1.8-4.6-1.4-6.1-1.5
		C15.3,16.2,5.1,25.1,5,36c0,3.3,3.5,0.5,4.5-1.2c0.7-1.2,1.4-4.2,3-7.4s3.4-4.5,4.1-3.7c-0.5,2.1-4.2,10.8-4.2,12.5
		c0.1,6.8,1.2,19.6-10.4,24.3c-0.6,0.3-1.1,0.7-1.5,1.3c-0.7,0.9-0.5,2.3,0.4,3c0,0,0,0,0,0c1.6,1.2,3.8,1.4,5.6,0.3
		c2.6-1.3,13.6-7.5,13.4-22.9c0,0,9,5.7,9.9,6.4c1.5,1,0.6,15.8,1.4,17.7c0.8,1.9,3.9,2.7,5.5-0.4c0.3-0.7-0.5-17.8-1.5-20.5
		c-1.1-3.1-8.5-7.6-8.9-8.1C26,37,25.9,36.5,25.9,36c0.6-3.4,1.1-6.4,1.5-10.5c4-0.8,7.9,5.4,9.6,7.5C38.7,35.1,40,41.1,43.1,39.1z"
		/>
	<path class="st0" d="M52.9,58.6c-0.3-3.4-3.4-6-6.8-5.6c-3.4,0.3-6,3.4-5.6,6.8c0,0,0,0,0,0c0.3,3.4,3.4,5.9,6.8,5.6
		C50.7,65.1,53.2,62.1,52.9,58.6z"/>
	<path class="st0" d="M30.2,0.3c-4-1.1-8.1,1.2-9.2,5.2c-0.1,0.3-0.1,0.6-0.2,1l14.6-0.8C34.8,3.1,32.9,1,30.2,0.3z"/>
	<path class="st0" d="M33.7,10.8c-2-0.5-1.2-1.9-2.2-2.4c-0.9-0.5-8.7,0.2-10.7,0.4c0.2,3.6,2.5,7.4,5.9,8c3.6,0.6,7.2-2.4,8.5-5.9
		C34.8,10.9,34.3,10.9,33.7,10.8z"/>
	<path class="st0" d="M20.8,6.9c0-0.1,0-0.3,0.1-0.4l-0.5,0l-0.1,2.3c0,0,0.2,0,0.5,0C20.7,8.1,20.7,7.5,20.8,6.9z"/>
	<path class="st0" d="M35.4,9.4L35.4,9.4c0,0.5-0.2,0.9-0.3,1.4c0.7-0.2,0.9-0.6,0.9-0.6l-0.2-4.6l-0.4,0
		C35.8,6.8,35.8,8.1,35.4,9.4z"/>
</g>
</svg>
