<?xml version="1.0" encoding="utf-8"?>
<!-- Generator: Adobe Illustrator 25.1.0, SVG Export Plug-In . SVG Version: 6.00 Build 0)  -->
<svg version="1.1" id="Layer_1" xmlns="http://www.w3.org/2000/svg" xmlns:xlink="http://www.w3.org/1999/xlink" x="0px" y="0px"
	 viewBox="0 0 49.7 64.5" style="enable-background:new 0 0 49.7 64.5;" xml:space="preserve">
<style type="text/css">
	.st0{fill:#FFFFFF;}
</style>
<g>
	
		<ellipse transform="matrix(0.3827 -0.9239 0.9239 0.3827 -38.0987 44.0735)" class="st0" cx="13.9" cy="50.5" rx="13.9" ry="13.9"/>
	<path class="st0" d="M23.4,15.1c3.8,0,6.8-4.2,6.8-8c0.2-3.8-2.8-6.9-6.5-7.1c-3.8-0.2-6.9,2.8-7.1,6.5c0,0.2,0,0.4,0,0.6
		C16.6,10.9,19.6,15.1,23.4,15.1z"/>
	<path class="st0" d="M12.5,26.2l2.8,0.1v0l5.1,0.2h0.1c1.5,0,2.7-1.2,2.8-2.7v-0.1c0.1-1.5-1.1-2.9-2.7-2.9l-5.1-0.2c0,0,0,0,0,0
		l-2.9-0.1c-1.5,0-2.7,1.1-2.9,2.6C9.8,24.7,11,26.1,12.5,26.2z"/>
	<path class="st0" d="M49.7,19.9C49.7,1.5,36,1.3,35.8,1.3C35,1.4,34.4,2,34.3,2.8c-0.1,0.9,0.6,1.7,1.5,1.8
		c0.4,0,9.5,0.3,10.5,13.1c-0.2,0-0.4-0.1-0.6-0.1v0L21,16.4c-1.4,0-3.2,1.1-4.4,2.6l4.2,0.2c0,0,0,0,0,0c2.5,0.1,4.4,2.2,4.2,4.6
		v0.1c-0.1,2.4-2.1,4.3-4.5,4.3h-0.2L15.4,28v6.2c4.3,0,8.4,2.1,11,5.5c0.2,0.2,0.4,0.4,0.5,0.7h6.8c0,0.2,2.3,12.7,2.3,12.7
		c0.2,1,1.5,3.8,3.8,3.4s2.1-3.3,1.9-4.4c-0.2-1.4-1.1-9.7-2.1-14.2c1.9-0.6,3.6-1.6,5-3C47.9,31.6,49.7,26.6,49.7,19.9z M38,34.9
		c-2.1-0.5-8.2-0.2-8.2-0.2V23.4h15.9c0.2,0,0.3,0,0.5,0c-0.5,4-1.7,7.1-3.8,9.1C41.1,33.7,39.6,34.5,38,34.9z"/>
</g>
</svg>
