<?xml version="1.0" encoding="utf-8"?>
<!-- Generator: Adobe Illustrator 25.1.0, SVG Export Plug-In . SVG Version: 6.00 Build 0)  -->
<svg version="1.1" id="Layer_1" xmlns="http://www.w3.org/2000/svg" xmlns:xlink="http://www.w3.org/1999/xlink" x="0px" y="0px"
	 viewBox="0 0 44 68" style="enable-background:new 0 0 44 68;" xml:space="preserve">
<style type="text/css">
	.st0{fill:#FFFFFF;}
</style>
<g>
	<path class="st0" d="M34.7,32.4c3.4-0.5,6.4-2.2,8.8-4.7c1.6-2-1.1-3.6-2.4-4c-1.3-0.3-4.6,3-7.6,3s-10.2-8.2-12.2-8.9
		c-1.8-0.4-3.8-0.4-5.6,0C1,23.8,0,32,0,34.3c0,2.3,1.3,3,3.3,3s2.3-4,2.6-5.9c0.3-2,7.6-5.6,7.6-5.6s-2.3,7.6-1.6,10.9
		c0.7,3.3,2.1,7.1-0.3,13.8c-3.6,10-7.6,10-8.5,12.2c-0.5,1.1-0.9,3,0,4c1.7,1.6,4.3,0.3,4.3,0.3C20.2,56,20.2,42.6,20.2,42.6
		l4.6,2.6c5.9,3.3,3.9,3,3,6.3c-0.3,1-0.1,2,0.5,2.8c-1.4,2.3-5,8.6-4.8,9.7c0.3,1.3,4,5.6,7.3,3.3c0,0,2.3-1.3,1-2.3
		c-1.3-1-1.8,0.3-2.3,0.7c-0.8,0.5-3.4-0.1-3.3-1.6c0-1,2.8-6.1,4.1-8.2c1,0.2,2.1-0.2,3.2-1.7c3.2-4.6,3-6.9,2.3-9.2
		c-0.7-2.3-9.9-7.9-9.9-7.9c-1.5-3.4-2.4-7.1-2.6-10.9C24.9,28.1,31.5,32.7,34.7,32.4z"/>
	<path class="st0" d="M19.6,16.1c4.1,0.3,7.8-4.1,8.1-8.2c0.3-4.1-2.8-7.6-6.9-7.9c-4.1-0.3-7.6,2.8-7.9,6.9
		C12.5,11.1,15.5,15.8,19.6,16.1z"/>
</g>
</svg>
