<?xml version="1.0" encoding="utf-8"?>
<!-- Generator: Adobe Illustrator 25.1.0, SVG Export Plug-In . SVG Version: 6.00 Build 0)  -->
<svg version="1.1" id="Layer_1" xmlns="http://www.w3.org/2000/svg" xmlns:xlink="http://www.w3.org/1999/xlink" x="0px" y="0px"
	 viewBox="0 0 43.9 70.7" style="enable-background:new 0 0 43.9 70.7;" xml:space="preserve">
<style type="text/css">
	.st0{fill:#FFFFFF;}
</style>
<g>
	<ellipse transform="matrix(0.3827 -0.9239 0.9239 0.3827 -42.2263 52.2839)" class="st0" cx="18" cy="57.7" rx="13" ry="13"/>
	<path class="st0" d="M43.8,59.3C43.5,57.4,42.1,44,41,43.4c-1.1-0.6-8.2-0.4-8.2-0.4s-1.6-13.4-2.7-14.5c-1.1-1.1-6.1-1.4-6.6-1.4
		c-0.7,0-1.4,0.1-2.1,0.3c-1.7,0.4-6,1.2-7.9-0.1c-0.5-0.3-0.8-0.9-0.9-1.5c-0.3-1.7-0.5-3.4-0.6-5.1c0.1-0.3,0.2-0.6,0.2-0.9
		c0-1.5-1.2-2.7-2.7-2.7c0,0,0,0,0,0h0l-1.1-3c2-1.4,2.7-4.6,1.5-7.8c-1.3-3.7-4.4-5.7-7-4.9C0.3,2.2-0.7,6,0.6,9.6
		c1.2,3.2,3.8,5.3,6.2,5l1.1,2.9L7.4,18c-0.8,0.9-1.2,2-0.1,8.7c0.3,2,1.5,3.9,3.2,5c2.3,1.4,4.9,2,7.6,1.9h1.3v8.9
		c4,0,7.8,1.9,10.2,5.1c0.2,0.2,0.3,0.4,0.5,0.6h6.3c0,0.2,2.1,11.9,2.1,11.9c0.2,0.9,1.4,3.5,3.5,3.2C44.1,63,44,60.3,43.8,59.3z"
		/>
	<path class="st0" d="M14.9,5.1c0,0.1,0.2,0.2,0.3,0.2l1.6,0.2L19.2,6c0.1,0,0.2,0,0.2,0c0.4-0.1,0.6-0.5,0.4-0.8l-0.9-2.3L18,0.4
		c0-0.1-0.1-0.2-0.2-0.3c-0.3-0.2-0.7-0.2-0.9,0.1l-1.6,2l-1,1.2c-0.1,0.1-0.1,0.2,0,0.4L14.9,5.1z"/>
	<path class="st0" d="M14.3,5.7C14.3,5.7,14.4,5.7,14.3,5.7c0.1-0.1,0.1-0.1,0-0.2h0l-0.7-1.7c0,0-0.1,0-0.1,0
		c-0.3,0-1.8,0.4-1.4,1.5S14,5.9,14.3,5.7z"/>
	<path class="st0" d="M26.8,25.4c3.6,0,6.6-4.1,6.6-7.7c0-3.6-3-6.6-6.6-6.6c-3.6,0-6.6,2.9-6.6,6.6C20.2,21.4,23.2,25.4,26.8,25.4z
		"/>
</g>
</svg>
