<?xml version="1.0" encoding="utf-8"?>
<!-- Generator: Adobe Illustrator 25.1.0, SVG Export Plug-In . SVG Version: 6.00 Build 0)  -->
<svg version="1.1" id="Layer_1" xmlns="http://www.w3.org/2000/svg" xmlns:xlink="http://www.w3.org/1999/xlink" x="0px" y="0px"
	 viewBox="0 0 49.7 70.3" style="enable-background:new 0 0 49.7 70.3;" xml:space="preserve">
<style type="text/css">
	.st0{fill:#FFFFFF;}
</style>
<g>
	<ellipse transform="matrix(0.9732 -0.2298 0.2298 0.9732 -12.7818 4.5388)" class="st0" cx="13.1" cy="57.2" rx="13.1" ry="13.1"/>
	<path class="st0" d="M28,26.5c0,0,0.1,0,0.1,0l0.1,0L28,26.5z"/>
	<path class="st0" d="M43.6,15.9c0-1.3-0.9-2.4-2.2-2.6c-1.4-0.2-2.7,0.8-2.9,2.2c0,0.1,0,0.2,0,0.3c0,5.4-4.5,9.8-10.4,10.7l-0.1,0
		c-1.8,0.1-3.5,0-5.2-0.2L18.2,26c-2.2,0.2-3.9,2.2-3.8,4.4v11.5c4.1,0,7.9,2,10.3,5.2c0.2,0.2,0.4,0.4,0.5,0.6h6.3
		c0,0.2,2.1,12,2.1,12c0.1,0.9,1.4,3.6,3.6,3.2c2.1-0.4,1.9-3.1,1.8-4.1c-0.3-1.9-1.7-15.5-2.9-16.1c-1.1-0.6-8.2-0.5-8.2-0.5
		l0-10.6C36.8,30.7,43.6,24,43.6,15.9z"/>
	<ellipse transform="matrix(0.7071 -0.7071 0.7071 0.7071 9.5697 33.0792)" class="st0" cx="44.7" cy="5" rx="5" ry="5"/>
	<path class="st0" d="M21.5,24.9c3.6,0,6.5-4.1,6.5-7.7h0c0-3.6-2.9-6.5-6.5-6.5S15,13.6,15,17.3C15,20.9,17.9,24.9,21.5,24.9z"/>
</g>
</svg>
