<?xml version="1.0" encoding="utf-8"?>
<!-- Generator: Adobe Illustrator 25.1.0, SVG Export Plug-In . SVG Version: 6.00 Build 0)  -->
<svg version="1.1" id="Layer_1" xmlns="http://www.w3.org/2000/svg" xmlns:xlink="http://www.w3.org/1999/xlink" x="0px" y="0px"
	 viewBox="0 0 79.5 32.7" style="enable-background:new 0 0 79.5 32.7;" xml:space="preserve">
<style type="text/css">
	.st0{fill:#FFFFFF;}
</style>
<path class="st0" d="M77.8,18.3c-0.9-6.2-6.3-10.6-12-9.7c-1.4,0.2-2.8,0.8-3.9,1.5L51.1,4.3c-0.7-1-2.1-1.7-3.7-1.7
	c-2.3,0-4.2,1.4-4.2,3.2c0,0.4,0.1,0.7,0.2,1l-1.5,1.8L30.7,9.7c-4.8,0.5-5.1,4.6-4.6,7.1H22c-0.5-1.8-1.4-3.3-2.5-4.6
	c2.8,0.8,6.1,0.2,7.6-2.2c1.8-2.9,0.1-7.3-2.8-9.2c-3-1.7-6.8-0.7-8.5,2.3c-1.2,2-1,4.5,0.1,6.3c-1.7-0.8-3.6-1.1-5.5-0.8
	c-5.7,0.9-9.6,6.6-8.6,12.8c0.9,6.2,6.3,10.6,12,9.7c3.4-0.5,6.1-2.7,7.5-5.7h37.3c2.1,3.9,6.3,6.3,10.7,5.6
	C74.9,30.2,78.7,24.5,77.8,18.3z M40.9,13.2l2.4-0.3c0.3,0,0.6-0.1,0.8-0.3c0.3-0.1,0.5-0.3,0.7-0.5l2.7-3.2c1.2,0,2.3-0.4,3.1-1.1
	l8.7,4.8c-0.9,1.2-1.6,2.7-1.9,4.2h-0.1C53.6,15.9,45.4,14.2,40.9,13.2z"/>
</svg>
