<?xml version="1.0" encoding="utf-8"?>
<!-- Generator: Adobe Illustrator 25.1.0, SVG Export Plug-In . SVG Version: 6.00 Build 0)  -->
<svg version="1.1" id="Layer_1" xmlns="http://www.w3.org/2000/svg" xmlns:xlink="http://www.w3.org/1999/xlink" x="0px" y="0px"
	 viewBox="0 0 46.1 60" style="enable-background:new 0 0 46.1 60;" xml:space="preserve">
<style type="text/css">
	.st0{fill:#FFFFFF;}
</style>
<g>
	<circle class="st0" cx="13.2" cy="46.8" r="13.2"/>
	<path class="st0" d="M42.8,14.2c-1.8,0-3.3,1.5-3.3,3.3c0,1.8,1.5,3.3,3.3,3.3c1.8,0,3.3-1.5,3.3-3.3
		C46.1,15.7,44.6,14.2,42.8,14.2z"/>
	<path class="st0" d="M36.5,32.2c-1.1-0.6-2.4-0.9-5.5-0.7h-0.9L30,30.9c0.5,0.1,1,0.1,1.5-0.1l10.5-4.4c1.1-0.4,1.7-1.7,1.2-2.8
		c0,0,0,0,0,0L43,23c-0.5-1.1-1.7-1.6-2.8-1.2l-8.3,3.5c0,0-5-7.7-5.3-8c-1-1.3-5.3-2.3-8-2s-3.3,4.6-3.7,7s-0.4,9.1-0.4,9.1
		c4.1,0,8,2,10.4,5.2c0.2,0.2,0.3,0.4,0.5,0.6h7.7c1.7,3,6.6,16.2,9.4,16.2s2-3.2,1.8-4.1C44.1,47.5,37.7,32.8,36.5,32.2z"/>
	<path class="st0" d="M21.6,14.3c3.6,0,6.6-4.1,6.6-7.7c0-3.6-2.9-6.6-6.6-6.6s-6.6,2.9-6.6,6.6C15.1,10.2,18,14.3,21.6,14.3z"/>
</g>
</svg>
