<?xml version="1.0" encoding="utf-8"?>
<!-- Generator: Adobe Illustrator 25.1.0, SVG Export Plug-In . SVG Version: 6.00 Build 0)  -->
<svg version="1.1" id="Layer_1" xmlns="http://www.w3.org/2000/svg" xmlns:xlink="http://www.w3.org/1999/xlink" x="0px" y="0px"
	 viewBox="0 0 40.6 62.2" style="enable-background:new 0 0 40.6 62.2;" xml:space="preserve">
<style type="text/css">
	.st0{fill:#FFFFFF;}
</style>
<g>
	<path class="st0" d="M22.5,15.2c3.7-0.5,6.2-5.2,5.6-8.9h0c-0.7-3.7-4.2-6.2-7.9-5.5c-3.5,0.6-6,3.9-5.6,7.5
		C15.2,12,18.8,15.7,22.5,15.2z"/>
	<path class="st0" d="M13.5,35.3C6.1,35.3,0,41.3,0,48.7c0,7.4,6,13.5,13.4,13.5c7.4,0,13.5-6,13.5-13.4c0,0,0,0,0-0.1
		C26.9,41.4,20.9,35.4,13.5,35.3z"/>
	<path class="st0" d="M37.4,33.9L37.4,33.9c-1.3-0.6-8.6-0.4-8.6-0.4s0.4-11.3,0.4-11.5c-0.1-0.2,11.5-5.4,11.5-12.8
		c0-4.5-4.5-9-7-9.2c-1.3-0.2-2.6,0.7-2.8,2c0,0.1,0,0.2,0,0.3c-0.3,2.4,5.3,3.5,5.3,6.9c0,4.5-8.2,7.7-8.3,7.7
		c-0.1,0-0.2,0.1-0.4,0.1c-2.6-0.2-7.6-0.6-7.9-0.6c-1-0.1-9.9-1.1-13.9,2.7c-1.5,1.4-2.2,3.5-2,5.6c0.4,4.3,0.5,5.1,0.5,5.2
		c0,1.3,1.1,2.4,2.5,2.4S9,31.2,9,29.9c0,0,0,0,0-0.1c0-0.1,0-0.5-0.5-5.6c-0.1-0.6,0.1-1.2,0.5-1.6c1-1,3.5-1.5,5.9-1.6v12
		c4.2,0,8.1,2,10.6,5.3c0.2,0.2,0.4,0.4,0.5,0.6h6.5c0,0.2,2.2,12.3,2.2,12.3c0.2,0.9,1.5,3.7,3.6,3.3c2.2-0.4,2-3.2,1.9-4.2
		C40,48.5,38.5,34.6,37.4,33.9z"/>
</g>
</svg>
