<?xml version="1.0" encoding="utf-8"?>
<!-- Generator: Adobe Illustrator 25.1.0, SVG Export Plug-In . SVG Version: 6.00 Build 0)  -->
<svg version="1.1" id="Layer_1" xmlns="http://www.w3.org/2000/svg" xmlns:xlink="http://www.w3.org/1999/xlink" x="0px" y="0px"
	 viewBox="0 0 71.6 61.7" style="enable-background:new 0 0 71.6 61.7;" xml:space="preserve">
<style type="text/css">
	.st0{fill:#FFFFFF;}
</style>
<g>
	<path class="st0" d="M13.1,35.5c-3.5,0-6.8,1.4-9.2,3.8C1.4,41.8,0,45.1,0,48.6c0,7.2,5.9,13.1,13.1,13.1s13.1-5.9,13.1-13.1
		S20.3,35.5,13.1,35.5z"/>
	<path class="st0" d="M21.5,16.3c1.2,0,2.3-0.4,3.2-1.1c0.3,0.5,0.6,0.9,0.9,1.4l0.8,1l1-0.8c4.4-4,4.8-10.8,0.8-15.2
		c-0.3-0.3-0.5-0.6-0.8-0.8l-1-0.8l-0.8,1c-0.5,0.6-0.9,1.2-1.2,1.9c-0.9-0.4-1.9-0.7-2.9-0.7c-3.6,0-6.5,2.9-6.5,6.5
		C15,12.3,17.9,16.3,21.5,16.3z M29.4,11.1C29.4,11.1,29.4,11.1,29.4,11.1C29.4,11.1,29.4,11.1,29.4,11.1z M29.5,10.4
		c0-0.1,0-0.1,0-0.2C29.6,10.2,29.6,10.3,29.5,10.4z M29.6,9.6c0-0.1,0-0.2,0-0.3C29.7,9.4,29.7,9.5,29.6,9.6z M29.7,8.8
		c0-0.2,0-0.3,0-0.5C29.7,8.5,29.7,8.6,29.7,8.8z M29.4,6.4c-0.4-1.4-1.1-2.8-2.2-4C27,2.2,26.8,2,26.6,1.8c0,0,0,0,0,0
		C28,3.1,28.9,4.7,29.4,6.4z M29.6,8c0-0.2,0-0.4-0.1-0.6C29.6,7.6,29.6,7.8,29.6,8z M29.5,7.2c0-0.2-0.1-0.5-0.1-0.7
		C29.5,6.7,29.5,7,29.5,7.2z"/>
	<path class="st0" d="M43.6,28.9c3,0,3.7-5.3-1.3-4.9l0,0C37.3,24.3,30,22.3,28,19.4c-1.3-1.8-3.4-2.8-5.6-2.6
		c-6.6-0.3-7.3,3.3-7.9,5.3c-0.6,1.7-0.1,8.8,0,10.5v0.8c4.1,0,7.9,2,10.3,5.2c0.2,0.2,0.3,0.4,0.5,0.6h6.3c0,0.2,2.2,11.9,2.2,11.9
		c0.2,0.9,1.4,3.6,3.6,3.2c2.1-0.4,2-3.1,1.8-4.1c-0.4-1.9-1.8-15.4-2.9-16.1c-1.1-0.6-8.2-0.4-8.2-0.4l-0.3-8
		C33,29.6,41.8,28.9,43.6,28.9z"/>
	<path class="st0" d="M70.9,26.3L70.9,26.3L48.1,26c-0.4-3.4-3.6-4.5-5.5-4.8c-0.4-0.1-0.9,0.2-1,0.7c-0.1,0.5,0.2,0.9,0.7,1
		c0,0,0,0,0,0c0.2,0,4,0.5,4,4s-3.6,3.6-4,3.6c-0.5,0.1-0.8,0.5-0.7,0.9c0,0.4,0.3,0.7,0.7,0.7c1.8,0,5.1-1.1,5.5-4.4L70.8,27
		c0,0,0.7-0.3,0.7-0.4S70.9,26.3,70.9,26.3z"/>
</g>
</svg>
