<?xml version="1.0" encoding="utf-8"?>
<!-- Generator: Adobe Illustrator 25.1.0, SVG Export Plug-In . SVG Version: 6.00 Build 0)  -->
<svg version="1.1" id="Layer_1" xmlns="http://www.w3.org/2000/svg" xmlns:xlink="http://www.w3.org/1999/xlink" x="0px" y="0px"
	 viewBox="0 0 42.2 67.2" style="enable-background:new 0 0 42.2 67.2;" xml:space="preserve">
<style type="text/css">
	.st0{fill:#FFFFFF;}
</style>
<g>
	<path class="st0" d="M5.2,34.3c0-1.4-1.2-2.6-2.6-2.6h0c-1.4,0-2.6,1.2-2.6,2.6c0,1.4,1.2,2.6,2.6,2.6C4.1,36.9,5.2,35.7,5.2,34.3z
		"/>
	<path class="st0" d="M32.2,18L32.2,18c-1.3-0.6-1.7-1.3-6-1.6c-2.1-0.2-12.4-1.3-19.3,3.1c-3.7,2.3-7,4.2-5.6,6.9
		c1.6,3.3,5.9-1.4,8.2-2.3c2.3-0.9,8.9-4.5,12-1.8c-1.9,4.5-5.4,7.4-5.8,11.2C15.2,40.3,15.2,53.1,3,56.6c-0.6,0.2-1.2,0.6-1.6,1.1
		c-0.8,0.8-0.7,2.2,0.1,3c0,0,0,0,0.1,0.1c1.5,1.4,3.7,1.7,5.5,0.9c2.7-1,14.3-6.1,15.5-21.5c0,0,8.4,6.6,9.3,7.3
		c1.4,1.2-1,15.8-0.3,17.8s3.7,3.1,5.5,0.2c0.4-0.6,1.2-17.7,0.5-20.6c-0.2-0.8-0.8-1.7-1.6-2.7C41,32.6,36.6,20.1,32.2,18z
		 M33.6,31.3c-0.1,3.2-0.8,5.7-1,7.3c-1.6-1.4-2.9-2.5-3.1-2.7c-0.8-1,1.4-6.7,2.3-9.7C32.8,25.7,33.7,27.7,33.6,31.3z"/>
	<path class="st0" d="M36.2,0.3c-3.8-1.1-7.7,1-9,4.7l14.2,0.6C40.8,3.1,38.9,1,36.2,0.3z"/>
	<path class="st0" d="M39.5,10.6c-2-0.7-1-2-2-2.6c-0.9-0.6-8.8-0.6-10.8-0.7c-0.2,3.6,1.8,7.6,5.1,8.5c3.5,1,7.4-1.7,9-5
		C40.6,10.8,40.2,10.8,39.5,10.6z"/>
	<path class="st0" d="M41.5,5.6c0.3,1.2,0.3,2.5,0,3.8h0c-0.1,0.5-0.3,0.9-0.5,1.4c0.7-0.1,0.9-0.5,0.9-0.5l0.3-4.6L41.5,5.6z"/>
	<path class="st0" d="M27.2,5l-0.5,0l-0.3,2.3c0,0,0.2,0,0.4,0c0-0.6,0.1-1.3,0.3-1.9C27.1,5.3,27.2,5.2,27.2,5z"/>
</g>
</svg>
