<?xml version="1.0" encoding="utf-8"?>
<!-- Generator: Adobe Illustrator 25.1.0, SVG Export Plug-In . SVG Version: 6.00 Build 0)  -->
<svg version="1.1" id="Layer_1" xmlns="http://www.w3.org/2000/svg" xmlns:xlink="http://www.w3.org/1999/xlink" x="0px" y="0px"
	 viewBox="0 0 59.5 49.6" style="enable-background:new 0 0 59.5 49.6;" xml:space="preserve">
<style type="text/css">
	.st0{fill:#FFFFFF;}
</style>
<g transform="translate(-474.105 -474.004)">
	<g>
		<path class="st0" d="M502.3,482.1c-1.4-0.5-0.7-1.5-1.4-1.9c-0.7-0.4-6.7-0.5-7.9-0.5c-0.1,2.6,1.3,5.5,3.7,6.2
			c2.6,0.7,5.4-1.2,6.6-3.7C503,482.3,502.7,482.3,502.3,482.1z"/>
		<path class="st0" d="M499.8,474.6c-2.8-0.8-5.6,0.8-6.6,3.5l10.4,0.4C503.2,476.6,501.8,475.1,499.8,474.6z"/>
		<path class="st0" d="M503.7,478.5c0.2,0.9,0.2,1.8,0,2.8c-0.1,0.3-0.2,0.7-0.4,1c0.6,0,0.8-0.4,0.8-0.4l0.2-3.4L503.7,478.5z"/>
		<path class="st0" d="M493.3,478l-0.4,0l-0.2,1.7c0,0,0.1,0,0.3,0c0-0.5,0.1-0.9,0.2-1.4C493.2,478.2,493.2,478.1,493.3,478z"/>
	</g>
	<g>
		<path class="st0" d="M516.7,479c-0.8,0.2-0.5,1.3-2,1.3c-0.5,0-0.8-0.1-1-0.2c0.3,2.7,2.4,5.5,5,5.7c2.5,0.1,4.8-2.2,5.6-4.7
			C522.9,480.7,517.4,478.8,516.7,479z"/>
		<path class="st0" d="M519.4,474c-2-0.1-3.9,0.9-4.9,2.5l10,3C524.5,476.6,522.3,474.2,519.4,474z"/>
		<path class="st0" d="M513.7,479.1c0.1-1,0.4-1.9,0.9-2.6l-0.5-0.1l-0.9,3.2c0,0,0,0.4,0.5,0.6
			C513.6,479.8,513.6,479.5,513.7,479.1z"/>
		<path class="st0" d="M524.9,479.6l-0.4-0.1c0,0.1,0,0.2,0,0.3c0,0.5-0.1,0.9-0.2,1.4c0.2,0.1,0.3,0.1,0.3,0.1L524.9,479.6z"/>
	</g>
	<g>
		<path class="st0" d="M529,496.9c1,1.5,0.4,5.5,3.3,4.6c2.7-0.8,1-7.9-5.1-11.6c-1.7-1-3.4-1.9-5.2-2.7c-1.5-0.4-3.1-0.3-4.6,0.2
			c-1,0.5-6.8,6-8,6.3c-1.3,0.4-4.1-1.8-5-2.1c-0.9-0.2-1.9,0-2.6,0.7c-0.6,0.7-0.6,1.7,0,2.3c1.4,1,2.8,1.9,4.3,2.7
			c4.3,2.7,10.7-4.2,10.7-4.2c0.1,1-0.2,2.6-0.5,4.1c2,1,5.7,2.7,8.6,2.6c-0.1-1.8-0.6-4.4-1.3-7C525.6,494,527.4,495.4,529,496.9z"
			/>
		<path class="st0" d="M515.8,498.9c-0.4,1.3-0.9,2.4-1.2,2.6c-0.4,0.3-6,3.3-6.9,5.5c-0.9,2,1.3,5.9,1.5,6.4
			c0.5,1.1,5.5,9.4,6.8,9.4c1.1,0,2.1-0.7,2.4-1.7c0.3-0.9-6.1-11-5.8-11.7c0.3-0.8,6.4-3.9,6.4-3.9c0,10.7,8.6,17.4,8.6,17.4
			c1.2,1,2.9,1,4.1,0c0,0,0,0,0,0c0.7-0.5,0.9-1.4,0.4-2.1c-0.3-0.4-0.6-0.8-1-1c-7.7-5.4-7.2-14.9-6.5-18c0,0,0,0,0,0
			C521.6,501.6,517.9,500,515.8,498.9z"/>
		<path class="st0" d="M514.7,496.6l-0.4,1.5c0.1,0.1,0.7,0.4,1.6,0.9c0.2-0.5,0.3-1,0.4-1.5C515.4,496.9,514.7,496.6,514.7,496.6z"
			/>
		<path class="st0" d="M524.8,501.4c0,0.1,0,0.1,0,0.2c0.7,0,1.5-0.1,2.2-0.4l-0.3-1.5c-0.5,0.2-1.2,0.3-1.8,0.3
			C525,500.6,524.9,501,524.8,501.4z"/>
	</g>
	<g>
		<path class="st0" d="M485.3,497.6c-0.1,0.4-0.3,0.8-0.3,1.3c-0.4,4.9-0.5,14.3-9.3,16.9c-0.5,0.2-0.9,0.5-1.2,0.8
			c-0.6,0.6-0.5,1.6,0.1,2.2c0,0,0,0,0,0c1.1,1,2.7,1.3,4,0.6c6.6-2.5,11-8.7,11.4-15.7c0,0,6.2,4.9,6.8,5.3c1,0.9-0.7,11.6-0.2,13
			c0.5,1.4,2.6,2.2,4,0.1c0.3-0.4,0.9-12.9,0.4-15.1c-0.6-2.3-5.6-6.1-5.9-6.5c0-0.1-0.1-0.1-0.1-0.2c-0.2,0-0.4,0-0.5,0
			C491.1,500.5,487.2,498.7,485.3,497.6z"/>
		<path class="st0" d="M507.2,500.8c-2.3-7.9-7-11.6-10.2-13.2c-1.3-0.8-2.9-1.2-4.4-1.2c-1.5-0.1-9.1-0.9-14.1,2.3
			c-2.7,1.7-5.1,3.1-4.1,5.1c1.2,2.4,4.3-1,6-1.7c1.7-0.7,6.5-3.3,8.8-1.3c-0.9,2.2-2.4,3.8-3.3,5.5c2.1,1.1,6.2,2.9,9.2,2.6
			c0.4-1.6,1.2-3.8,1.6-5.3c0.7-0.3,3.7,0.8,5.5,3.5c0.9,1.6,1.7,3.2,2.3,5C505.2,503.3,507.9,503.1,507.2,500.8z"/>
		<path class="st0" d="M495,500.4c0.6,0,1.2-0.1,1.7-0.3l-0.3-1.5c-0.4,0.1-0.8,0.2-1.3,0.3C495,499.5,494.9,500.1,495,500.4z"/>
		<path class="st0" d="M484.4,495.5l-0.4,1.5c0.1,0,0.6,0.3,1.3,0.7c0.2-0.5,0.4-0.9,0.6-1.4C485,495.8,484.4,495.5,484.4,495.5z"/>
	</g>
</g>
</svg>
