<?xml version="1.0" encoding="utf-8"?>
<!-- Generator: Adobe Illustrator 25.1.0, SVG Export Plug-In . SVG Version: 6.00 Build 0)  -->
<svg version="1.1" id="Layer_1" xmlns="http://www.w3.org/2000/svg" xmlns:xlink="http://www.w3.org/1999/xlink" x="0px" y="0px"
	 viewBox="0 0 79.3 51.8" style="enable-background:new 0 0 79.3 51.8;" xml:space="preserve">
<style type="text/css">
	.st0{fill:#FFFFFF;}
</style>
<g>
	<path class="st0" d="M38.8,13.4c3.4,0.1,6.3-3.7,6.4-7h0c0.1-3.4-2.6-6.2-6-6.4c-3.4-0.1-6.2,2.6-6.4,6
		C32.8,9.4,35.4,13.3,38.8,13.4z"/>
	<path class="st0" d="M43.9,33.6c-0.3-1-0.5-2-0.8-3.1l4.3-3.3c1.7,1.3,3.4,1.8,4.2,0.1c1.1-2.4,2.6-4.4,3.5-6l4.9-3.8
		c0.9,0.7,2.7,0.3,3.6-0.4l0,0l3.6-2.4c1.1-0.8,1.3-2.3,0.6-3.4c0,0,0,0,0,0L66.3,9c-0.8-1.1-2.3-1.3-3.4-0.6c0,0,0,0,0,0l-3.1,2.7
		c-1,0.8-2.3,2.6-1.7,3.7l-10,7.7c-2-2-5.3-6.9-6.1-7.5c-1.6-0.9-3.3-1.2-5.1-0.9c-1.3,0.2-4.5,12.2-5.9,18.7
		C13.7,30.8,0,24.5,0,24.5c0,0,5.8,11.7,23.5,16.8l-1.3,1c-1-0.7-3,0-4,0.8l-3.4,2.3c0,0,0,0,0,0c-1,0.8-1.2,2.4-0.4,3.4l1.7,2
		c0,0,0,0,0,0c0.8,1,2.4,1.2,3.4,0.4l3.3-2.9l0,0c1-0.8,1.9-2.4,1.4-3.5l3.3-2.6c4,0.8,8.5,1.3,13.6,1.3c31.8,0,38.1-19.2,38.1-19.2
		S67.5,33.2,43.9,33.6z M41.8,21.6c0,0,1.3,1.7,3,3.4l-2.5,1.9C41.8,24.6,41.6,22.5,41.8,21.6z"/>
</g>
</svg>
