<?xml version="1.0" encoding="utf-8"?>
<!-- Generator: Adobe Illustrator 25.1.0, SVG Export Plug-In . SVG Version: 6.00 Build 0)  -->
<svg version="1.1" id="Layer_1" xmlns="http://www.w3.org/2000/svg" xmlns:xlink="http://www.w3.org/1999/xlink" x="0px" y="0px"
	 viewBox="0 0 67.6 38.9" style="enable-background:new 0 0 67.6 38.9;" xml:space="preserve">
<style type="text/css">
	.st0{fill:#FFFFFF;}
</style>
<g>
	<path class="st0" d="M1.3,11.4C0.6,11.4,0,12,0,12.7v10.2c0,0.7,0.6,1.3,1.3,1.3s1.3-0.6,1.3-1.3V12.7C2.6,12,2,11.4,1.3,11.4z"/>
	<path class="st0" d="M62.4,9.3C61.7,9.3,61,9.8,61,10.5v5.4H36.5c3.3-1,5.8-4.9,5.8-8.5c0-4.9-4.7-8.7-9.9-7.1c-3,1-5,3.9-5,7.1v0
		c0,3.5,2.5,7.4,5.8,8.5H6.8c-0.1,0-0.2,0-0.2,0v-5.5c0-0.1,0-0.2,0-0.3C6.5,9.4,5.9,8.9,5.1,8.9C4.4,9,3.9,9.6,4,10.4v14.9
		c0,0.7,0.6,1.3,1.3,1.3c0,0,0,0,0,0c0.7,0,1.3-0.6,1.3-1.3v-5.5c0.1,0,0.2,0,0.2,0h15.9l0.4,3.1c0.2,2.2,2.8,3.2,4.5,1.7l2.4-2.1
		c-0.3,1.9-0.6,3.6-0.6,3.7c-1.2,4.6-1.6,8.5-1.2,10.4c0.6,3.2,11.1,3.2,12.8,0.2c0.6-1,0-7.3-1-10.5c0,0-0.3-2-0.7-4.1l2.9,2.6
		c1.7,1.4,4.3,0.4,4.5-1.7l0.4-3.1H61v5.6c0,0,0,0,0,0c0,0.7,0.6,1.3,1.3,1.3v0c0.7,0,1.3-0.6,1.3-1.3V10.5
		C63.5,9.9,63,9.4,62.4,9.3z M38.8,19.7C38.8,19.7,38.8,19.7,38.8,19.7l0.2,0L38.8,19.7z"/>
	<path class="st0" d="M66.4,11.7c-0.7-0.1-1.4,0.5-1.4,1.2v10.2c0,0.7,0.6,1.3,1.3,1.3v0c0.7,0,1.3-0.6,1.3-1.3V12.8
		C67.5,12.2,67,11.7,66.4,11.7z"/>
</g>
</svg>
