<?xml version="1.0" encoding="utf-8"?>
<!-- Generator: Adobe Illustrator 25.1.0, SVG Export Plug-In . SVG Version: 6.00 Build 0)  -->
<svg version="1.1" id="Layer_1" xmlns="http://www.w3.org/2000/svg" xmlns:xlink="http://www.w3.org/1999/xlink" x="0px" y="0px"
	 viewBox="0 0 60.9 61.1" style="enable-background:new 0 0 60.9 61.1;" xml:space="preserve">
<style type="text/css">
	.st0{fill:#FFFFFF;}
</style>
<g>
	<path class="st0" d="M27.6,13.6c3.4,0.2,6.4-3.4,6.7-6.8h0c0.4-3.4-2.1-6.4-5.5-6.8c-3.4-0.4-6.4,2.1-6.8,5.5c0,0.2,0,0.3,0,0.5
		C21.7,9.4,24.2,13.4,27.6,13.6z"/>
	<path class="st0" d="M18.1,26.2c0.2-2,1.3-3.8,2.8-5c-1,3.9-1.8,8-1.4,9.6c0.1,0.8,0.5,1.6,1,2.2c0.8,1,2.7,1.4,3.4,1.7
		c0.1,0,0.2,0.1,0.4,0.1c0,0,0,0-0.1,0c1.9,0.7,9.8,3.6,10.1,4.3c0.3,0.8-4.1,10.7-3.8,12.4c0.5,0.5,1.2,0.9,1.9,1
		c0.2,0.1,0.4,0.1,0.6,0.1c0.1,0,0.1,0,0.2,0c0.1,0,0.2,0,0.3,0c0,0,0.1,0,0.2,0c0.6-0.2,1-0.7,1.4-1.5c0.2-0.6,4.8-11.6,3.8-13.8
		c-1.1-2.5-8.3-5.4-9.7-7.6l0-0.1c-1.4-2.2-1-5.4-0.6-8.1c0.4-1.5,0.7-3,0.9-4.5c0-1.4-1.4-1.8-1.6-1.9c-1.7-0.6-3.5-0.7-5.2-0.3
		c-1.6,0.5-5.5,3.6-7.1,6.3s-3.6,9.1-1.7,10.4C16.8,33.5,17.8,28.3,18.1,26.2z"/>
	<path class="st0" d="M60.8,22.8c-0.1-0.1-0.2-0.2-0.3-0.2c-2.8-0.1-5.6-0.4-8.4-0.8C45,21,38.8,29.1,35.5,31.6
		c-0.2,0.2-0.5,0.4-0.7,0.6c2.4,1.5,4.5,2.9,5.2,4.4c0.4,0.8,0.5,2.5-1.3,7.9c-0.5,1.4-1.3,3.6-2.5,6.7l-0.1,0.1
		c-0.4,1.3-1.6,2.3-2.9,2.3c-0.3,0-0.6,0-0.9-0.1c-1.1-0.2-2-0.8-2.6-1.6l-0.2-0.5l0.1-0.2c0-1.3,0.9-3.8,2.3-7.6
		c0.5-1.4,1.2-3.2,1.4-4c-3.2-1.5-6.4-2.8-9.7-3.9l-0.4-0.1c-0.9-0.2-1.7-0.6-2.5-1.1c-8.8-1.1-12-2.7-18,0.5
		c-1.1,0.6-2.1,1.5-2.8,2.6c2.2,6.4,6.2,12.1,11.6,16.2c9.4,1.8,21.1,2.7,26,0.1c0.2-0.1-0.2,4-0.4,7.1c1.4-0.2,2.8-0.4,4.1-0.7
		c-0.1-2.5,0-5.9,2-8l0,0c3.6-3.6,3-9.3,2.2-11.8c-0.9-2.5,1.1-10.4,4.3-9.4c3.2,1,2.5,7.2,2.5,7.2c2.5,3.3,4.9-0.1,4.9-0.1L58.8,25
		l2-1.6C61,23.3,61,23,60.8,22.8z"/>
</g>
</svg>
