<?xml version="1.0" encoding="utf-8"?>
<!-- Generator: Adobe Illustrator 25.1.0, SVG Export Plug-In . SVG Version: 6.00 Build 0)  -->
<svg version="1.1" id="Layer_1" xmlns="http://www.w3.org/2000/svg" xmlns:xlink="http://www.w3.org/1999/xlink" x="0px" y="0px"
	 viewBox="0 0 79.3 58.7" style="enable-background:new 0 0 79.3 58.7;" xml:space="preserve">
<style type="text/css">
	.st0{fill:#FFFFFF;}
</style>
<g>
	<path class="st0" d="M45.1,13.5c3.4,0.1,6.3-3.7,6.4-7c0.2-3.4-2.4-6.3-5.8-6.5c-3.4-0.2-6.3,2.4-6.5,5.8c0,0.1,0,0.2,0,0.4
		C39.1,9.5,41.7,13.4,45.1,13.5z"/>
	<path class="st0" d="M53.4,33.4L62,27c0,0,0,0,0-0.1c0.9-0.4,1.8-0.9,2.7-1.3c0.7-0.7,0.8-1.7,0.3-2.5c0,0,0-0.1,0-0.1l0,0
		c-0.1-0.1-0.2-0.2-0.4-0.3c-0.2-0.2-0.5-0.4-0.8-0.5c0,0-0.1-0.1-0.1-0.1c-0.2-0.1-0.4-0.1-0.6-0.2c-0.1,0-0.1,0-0.2,0
		c-0.2,0-0.4,0-0.6,0c-0.1,0-0.1,0-0.2,0c0,0,0,0,0,0c0,0,0,0,0,0c-0.8,0.2-3.2,1.5-4.9,1.7c-0.4,0-0.7,0-1-0.1
		c-1.2-0.5-7-7.5-8-8.2c-1.6-0.9-3.4-1.2-5.1-0.9c0,0-0.1,0-0.2,0.1c0,0,0,0,0,0c0,0-0.1,0.1-0.1,0.1c0,0,0,0-0.1,0.1
		c0,0.1-0.1,0.1-0.1,0.2c0,0,0,0,0,0.1c-0.1,0.2-0.3,0.5-0.4,0.8c0,0,0,0,0,0c-0.1,0.2-0.2,0.3-0.2,0.5c0,0,0,0,0,0
		c-0.6,1.3-1.2,3.1-1.8,5c0,0,0,0,0,0.1C40,21.6,40,21.8,39.9,22c0,0.1-0.1,0.2-0.1,0.4c0,0.1-0.1,0.2-0.1,0.3
		c-1.3,4.5-2.5,9.5-2.7,11.2C17,33,0,26,0,26.1c0,0.1,5.8,11.8,23.6,16.9l-4.4,2.4l0-0.1c-0.7-1.2-3-0.7-4.2,0L11.3,47
		c0,0,0,0-0.1,0c-1.1,0.7-1.5,2.2-0.8,3.4l1.4,2.4c0,0,0,0,0,0c0.7,1.2,2.2,1.5,3.3,0.9l3.7-2.4l0,0c1.2-0.6,2.3-2.3,1.8-3.5
		l7.1-3.9c1.7,0.4,3.6,0.7,5.5,0.9l-6.4,4.7c-0.8-1.1-3.1-0.3-4.2,0.5l-3.5,2.1c-1.1,0.8-1.3,2.3-0.5,3.4c0,0,0,0,0,0l1.6,2.2
		c0.8,1.1,2.3,1.3,3.4,0.5c0,0,0,0,0,0l3.4-2.8c1.1-0.8,2-2.6,1.4-3.6l9-6.6c1.2,0.1,2.4,0.1,3.7,0.1c31.8,0,38.1-19.2,38.1-19.2
		S70.5,31.5,53.4,33.4z M49,28.9c-0.1-0.4-0.2-0.9-0.3-1.3c0-0.1,0-0.2-0.1-0.3c0-0.2-0.1-0.5-0.1-0.7c0-0.2-0.1-0.4-0.1-0.6
		c0-0.1,0-0.2-0.1-0.3c0-0.3-0.1-0.5-0.1-0.8c0,0,0-0.1,0-0.1c-0.2-1.3-0.2-2.3,0-3c0,0,2.1,2.9,4.8,4.8L49,28.9z M54.5,29L50,32.4
		c-0.1-0.2-0.1-0.5-0.2-0.7L54.5,29z"/>
</g>
</svg>
