<?xml version="1.0" encoding="utf-8"?>
<!-- Generator: Adobe Illustrator 25.1.0, SVG Export Plug-In . SVG Version: 6.00 Build 0)  -->
<svg version="1.1" id="Layer_1" xmlns="http://www.w3.org/2000/svg" xmlns:xlink="http://www.w3.org/1999/xlink" x="0px" y="0px"
	 viewBox="0 0 79.3 57.2" style="enable-background:new 0 0 79.3 57.2;" xml:space="preserve">
<style type="text/css">
	.st0{fill:#FFFFFF;}
</style>
<g>
	<path class="st0" d="M30.5,24.2c3.4,0.1,6.3-3.7,6.4-7v0c0.2-3.4-2.4-6.3-5.8-6.5s-6.3,2.4-6.5,5.8c0,0.1,0,0.3,0,0.4
		C24.5,20.2,27.1,24.1,30.5,24.2z"/>
	<path class="st0" d="M50.4,45.7c7.2-2.8,17.3-8.7,17.7-19.3l0,0C68.7,9.9,43.7-0.6,44.3,0c2.3,2.3,5.6,14.3,5.6,24.7
		c0,2.7-0.4,5.4-0.9,8c-0.5-0.2-1-0.2-1.5-0.2c-1,0.2-4.4,2.2-5.9,1.6c-1.2-0.5-7-7.5-8-8.2c-1.6-0.9-3.3-1.2-5.1-0.9
		C27,25.4,23,40.2,22.4,44.2C9.4,41.8,0,38,0,38c0,0.1,9.4,19.2,41.1,19.2C72.9,57.2,79.3,38,79.3,38S69.5,44.1,50.4,45.7z
		 M36.6,45.9C35.5,43,33,34.7,33.6,32.5c0,0,6.2,8.5,11.4,6.2c1-0.4,1.9-0.8,2.8-1.2c-1.2,3.7-2.5,6.7-3.4,8.5c-1,0-2,0-3,0
		C39.8,46,38.2,46,36.6,45.9z"/>
</g>
</svg>
