<?xml version="1.0" encoding="utf-8"?>
<!-- Generator: Adobe Illustrator 25.1.0, SVG Export Plug-In . SVG Version: 6.00 Build 0)  -->
<svg version="1.1" id="Layer_1" xmlns="http://www.w3.org/2000/svg" xmlns:xlink="http://www.w3.org/1999/xlink" x="0px" y="0px"
	 viewBox="0 0 56.5 64.4" style="enable-background:new 0 0 56.5 64.4;" xml:space="preserve">
<style type="text/css">
	.st0{fill:#FFFFFF;}
</style>
<g>
	<circle class="st0" cx="13.9" cy="50.5" r="13.9"/>
	<path class="st0" d="M23.4,15.1c3.8,0,6.8-4.2,6.8-8c0.2-3.8-2.8-6.9-6.5-7.1c-3.8-0.2-6.9,2.8-7.1,6.5c0,0.2,0,0.4,0,0.6
		C16.6,10.9,19.6,15.1,23.4,15.1z"/>
	<path class="st0" d="M55.6,13.1l-10.9-0.4l0,0c-0.5,0-0.9,0.4-0.9,0.9l-0.2,2.3c0,0.3,0.1,0.5,0.2,0.7c0.2,0.2,0.4,0.3,0.7,0.3h0.1
		L44,17.5l-23-1.1c-2.2,0-5.6,3-5.6,5.6v12.2c4.3,0,8.3,2.1,11,5.5c0.2,0.2,0.4,0.4,0.5,0.7h6.8c0,0.2,2.3,12.7,2.3,12.7
		c0.2,1,1.5,3.8,3.8,3.4c2.3-0.4,2.1-3.3,2-4.4c-0.4-1.9-1.9-16.4-3.1-17c-1.2-0.6-8.8-0.4-8.8-0.4V23.3h15.9
		c1.6-0.1,2.8-1.5,2.7-3.1c0-0.6-0.3-1.2-0.7-1.7l1.2-1.8l6.7-0.1c0.5,0,0.9-0.4,0.9-0.9V14C56.5,13.5,56.1,13.1,55.6,13.1z"/>
</g>
</svg>
