<?xml version="1.0" encoding="utf-8"?>
<!-- Generator: Adobe Illustrator 25.1.0, SVG Export Plug-In . SVG Version: 6.00 Build 0)  -->
<svg version="1.1" id="Layer_1" xmlns="http://www.w3.org/2000/svg" xmlns:xlink="http://www.w3.org/1999/xlink" x="0px" y="0px"
	 viewBox="0 0 68.6 41.9" style="enable-background:new 0 0 68.6 41.9;" xml:space="preserve">
<style type="text/css">
	.st0{fill:#FFFFFF;}
</style>
<g>
	<path class="st0" d="M48,10.4L48,10.4c2.5-2.1,2.9-5.7,0.8-8.2c-1.9-2.3-5.3-2.8-7.8-1.1c-2.6,1.9-3.9,6.2-2,8.8
		C41,12.3,45.4,12.3,48,10.4z"/>
	<path class="st0" d="M68.6,12.5c-2.3,2.7-9.5,7.8-19.1,8.6c1.6-0.7,3.1-1.5,4.6-2.4c0.7-0.7,0.8-1.9,0.2-2.7l0,0
		c-0.8-0.8-1.9-1.2-3-1c-1,0.2-4.4,2.4-6,1.9c-1.2-0.4-6.1-5.8-8-7.6c-0.4-0.4-0.7-0.7-1.2-1c-2-1.1-4.2-2.1-6.3-2.9
		c-10.6-4.3-14,5.1-10.7,6.4c3.3,1.2,2.3-4.4,6.6-3.1c1,0.3,0.9,0.3,3.9,1.9c-3,1.1-8.2,4.4-10.8,5.9c-0.4,0-0.7,0-1.1,0
		C2.8,16.4,0,19.5,0,19.5c0,0.3,0.1,0.6,0.2,0.9c8,18.2,29.2,26.5,47.5,18.5C58.5,34.1,66.4,24.3,68.6,12.5L68.6,12.5z M37.8,16.5
		c1.1,1.2,3.2,3.3,5.5,4.5c-3.1-0.3-5.5-0.9-7.9-1.6C36.3,18.5,37.2,17.5,37.8,16.5z"/>
</g>
</svg>
