<?xml version="1.0" encoding="utf-8"?>
<!-- Generator: Adobe Illustrator 25.1.0, SVG Export Plug-In . SVG Version: 6.00 Build 0)  -->
<svg version="1.1" id="Layer_1" xmlns="http://www.w3.org/2000/svg" xmlns:xlink="http://www.w3.org/1999/xlink" x="0px" y="0px"
	 viewBox="0 0 55.3 62" style="enable-background:new 0 0 55.3 62;" xml:space="preserve">
<style type="text/css">
	.st0{fill:#FFFFFF;}
</style>
<g>
	<path class="st0" d="M13.3,35.1c-3.5,0-6.9,1.4-9.4,3.9C1.4,41.6,0,45,0,48.6C0,56,6.1,62,13.5,61.9c7.4,0,13.4-6.1,13.3-13.5
		C26.7,41.1,20.7,35.1,13.3,35.1z"/>
	<path class="st0" d="M46.2,4.9L46.2,4.9c-2.2-0.3-4.3,1.7-4.6,4.4c-0.4,2.1,0.7,4.2,2.7,5.2L44,17.7c-0.7,0.1-1.3,0.5-1.6,1.2
		c-0.6,1.5-2.4,6.3-4.6,5.6c-2.2-0.7-5-6.8-9-7.6c-3.2-0.4-6.5-0.4-9.7-0.1c-3.3,0-4.3,2-4.3,4.5v11.6c4.2,0,8.2,2,10.7,5.4
		c0.2,0.2,0.4,0.4,0.5,0.6h6.5c0,0.2,2.2,12.3,2.2,12.3c0.2,0.9,1.5,3.7,3.7,3.3c2.2-0.4,2-3.2,1.8-4.2c-0.3-1.9-1.8-15.8-2.9-16.5
		c-1.2-0.7-8.5-0.4-8.5-0.4s-0.6-10.3,0-10.5l0-0.1c0.6-0.3,4.9,7.7,9.4,7.7c3,0,8.9-8.2,9.2-10.5c0.1-1.1-0.7-1.8-1.7-2.1l0.3-3.1
		c2.1-0.4,3.7-2.2,3.8-4.4C50,7.6,48.5,5.2,46.2,4.9z"/>
	<path class="st0" d="M53.9,8c-0.7,0-1.3,0.6-1.3,1.3c0,0.7,0.6,1.3,1.3,1.3c0,0,0,0,0,0c0.7,0,1.3-0.6,1.3-1.3
		C55.3,8.6,54.7,8,53.9,8z"/>
	<path class="st0" d="M22.5,15.1c3.8,0,6.8-4.2,6.8-8c0.2-3.8-2.8-6.9-6.5-7.1c-3.8-0.2-6.9,2.8-7.1,6.5c0,0.2,0,0.4,0,0.6
		C15.7,10.9,18.8,15.1,22.5,15.1z"/>
</g>
</svg>
