<?xml version="1.0" encoding="utf-8"?>
<!-- Generator: Adobe Illustrator 25.1.0, SVG Export Plug-In . SVG Version: 6.00 Build 0)  -->
<svg version="1.1" id="Layer_1" xmlns="http://www.w3.org/2000/svg" xmlns:xlink="http://www.w3.org/1999/xlink" x="0px" y="0px"
	 viewBox="0 0 47.3 65" style="enable-background:new 0 0 47.3 65;" xml:space="preserve">
<style type="text/css">
	.st0{fill:#FFFFFF;}
</style>
<g>
	<path class="st0" d="M40.5,9.6C35.2,15.4,25,26.1,24.7,26c-1.1-0.1-5.5-6.8-6.3-7.6c-1-1.1-1.5-2.8-5.3-3.8
		C10.9,14,8.9,16.3,7.7,18c-1.2,2.4-2.3,4.9-3.1,7.5C0,38,11.2,41.7,12.5,37.7c1.3-4-5.2-2.5-4-7.6c0.3-1.2,0.3-1,2-4.6
		c1.9,4.5,7.5,11.5,7.5,12.1c0.3,7.7-0.8,15.3-3.1,22.6c-0.1,0.4-0.8,2.1-0.5,2.8c0.6,1.6,2.3,2.4,3.9,1.8c0.1,0,0.3-0.1,0.4-0.2
		c2.6-1.6,6.7-12.1,6.9-29.2c0,0,19.8-20.3,21.4-23.6C48.4,9.2,43.8,5.9,40.5,9.6z"/>
	<polygon class="st0" points="13,4 13,4 13,4 	"/>
	<path class="st0" d="M10.1,14.1C13.5,12.6,14.6,7.4,13,4c-1.5-3.4-5.6-5-9-3.5c-3.4,1.5-5,5.6-3.5,9c0,0,0,0.1,0,0.1
		C2.2,13.1,6.7,15.7,10.1,14.1z"/>
</g>
</svg>
