<?xml version="1.0" encoding="utf-8"?>
<!-- Generator: Adobe Illustrator 25.1.0, SVG Export Plug-In . SVG Version: 6.00 Build 0)  -->
<svg version="1.1" id="Layer_1" xmlns="http://www.w3.org/2000/svg" xmlns:xlink="http://www.w3.org/1999/xlink" x="0px" y="0px"
	 viewBox="0 0 51.2 70.2" style="enable-background:new 0 0 51.2 70.2;" xml:space="preserve">
<style type="text/css">
	.st0{fill:#FFFFFF;}
</style>
<g>
	<path class="st0" d="M13.5,43.2C13.5,43.2,13.5,43.2,13.5,43.2C6,43.2,0,49.3,0,56.7c0,7.4,6,13.5,13.4,13.5
		c7.4,0,13.5-6,13.5-13.4C26.9,49.3,20.9,43.3,13.5,43.2z"/>
	<path class="st0" d="M46.5,0c-3-0.4-5.9,2.3-6.3,6c-0.4,3.2,1.2,6.1,3.6,7l-0.3,3.9c-1,0.3-1.6,1.3-2,2.5
		c-1.4,5.3-11.7,5.7-12.7,5.7h0c-1,0-8.9-0.7-9.4-0.7c-1-0.1-9.9-1.1-13.9,2.7c-1.5,1.4-2.2,3.5-1.9,5.6c0.5,4.3,0.5,5.1,0.5,5.2
		c0,1.3,1.1,2.4,2.5,2.4c1.3,0,2.4-1.1,2.4-2.5c0-0.1,0-0.4-0.5-5.6C8.4,31.6,8.5,31,9,30.6c1-1,3.4-1.5,5.9-1.6v12
		c4.2,0,8.1,2,10.6,5.3c0.2,0.2,0.4,0.4,0.5,0.6h6.6c0,0.2,2.2,12.3,2.2,12.3c0.1,1,1.5,3.7,3.6,3.3c2.2-0.4,2-3.2,1.8-4.2
		c-0.3-1.9-1.7-15.9-2.9-16.5c-1.2-0.7-8.5-0.4-8.5-0.4V30.4c9-0.9,18-2.6,18-11c0-0.9-0.4-1.7-1-2.2l0.4-4c2.6-0.3,4.8-2.8,5.1-6
		C51.6,3.7,49.5,0.4,46.5,0z"/>
	<path class="st0" d="M22.5,23.2c3.8,0,6.8-4.2,6.8-8h0c0-3.8-3.1-6.8-6.8-6.8c-3.8,0-6.8,3.1-6.8,6.8C15.7,19,18.8,23.2,22.5,23.2z
		"/>
</g>
</svg>
