<?xml version="1.0" encoding="utf-8"?>
<!-- Generator: Adobe Illustrator 25.1.0, SVG Export Plug-In . SVG Version: 6.00 Build 0)  -->
<svg version="1.1" id="Layer_1" xmlns="http://www.w3.org/2000/svg" xmlns:xlink="http://www.w3.org/1999/xlink" x="0px" y="0px"
	 viewBox="0 0 76.8 25.9" style="enable-background:new 0 0 76.8 25.9;" xml:space="preserve">
<style type="text/css">
	.st0{fill:#FFFFFF;}
</style>
<g>
	<path class="st0" d="M36,11.8c1.7-0.3-0.2-2.4,1.9-3c0.7-0.2,1.4-0.2,2.1-0.2c-0.7,1-1.3,2.1-1.8,3.2c1.7,0.1,3.3,0.9,4.3,2.3
		c0.8-2,1.6-3.9,1.7-4.1c0.5-0.8,0.6-1.8,0.3-2.7c-0.2-1-1.5-1.2-2.3-1.3l0,0c-1.1,0-2.2,0.2-3.3,0.4C33.3,7.4,34.3,12.1,36,11.8z"
		/>
	<path class="st0" d="M48.2,5.1L48.2,5.1c0.9-1.3,0.5-3-0.8-3.9c-1.2-0.8-2.9-0.6-3.8,0.6c-1,1.3-0.9,3.2,0.3,4.3
		C45.4,6.9,47.2,6.5,48.2,5.1z"/>
	<path class="st0" d="M54,18.7c-0.5,0.1-0.9,0.3-1.3,0.6l-1-0.8c-0.2-0.1-0.4-0.2-0.6-0.2h-7.6c0-0.2,0-0.3-0.1-0.5
		c-0.7-2.9-3.4-5-6.5-4.8c-3.2,0.6-5.4,3.8-4.7,7c0,0,0,0,0,0h0c0.4,3.3,3.3,5.7,6.6,5.3c2.6-0.6,4.5-2.8,4.8-5.4h7.3l0.8,0.7
		c-0.2,0.6-0.3,1.2-0.2,1.9c0,0,0,0,0,0c0.4,1.7,2.1,2.7,3.8,2.2c1.7-0.4,2.7-2.1,2.2-3.8C57.1,19.5,55.6,18.5,54,18.7z"/>
	<path class="st0" d="M20.6,10.4c1.3-1,1.6-2.8,0.6-4.1c-1-1.3-2.8-1.6-4.1-0.6c-1.4,1-1.9,2.9-1,4.4C17.2,11.4,19.2,11.5,20.6,10.4
		z"/>
	<path class="st0" d="M25.2,15.2c-1.2,0.4-2.3,2.3-4.6,2.6c-2.6,0.4-5-1-7.4-2c0.8-0.5,1.6-1.1,2.1-2c1,1.1,3.5,3.5,5.6,2.4
		c0.9-0.4,1.8-0.9,2.7-1.3c0.4-0.4,0.4-0.9,0.1-1.4l0,0c-0.4-0.4-1-0.6-1.5-0.5c-0.5,0.1-2.3,1.2-3,0.9c-1.4-1.2-2.8-2.5-4.1-3.9
		c-0.2-0.2-0.4-0.4-0.6-0.5c-1-0.6-2.1-1.1-3.2-1.5C6,6,4.2,10.8,5.9,11.5s1.2-2.2,3.3-1.6c0.7,0.2,1.4,0.6,2,0.9
		C8.7,12,6.3,13.4,4.1,15c-2.2,0.8-4.8,2.4-3.8,3.8c1.6,2.3,4.6-1.3,6.6-1.3c3,0,4.6,1,6.9,2h0c2.7,1.2,6.1,1.8,7.9,1.3
		c2-0.8,3.8-2.1,5.1-3.9C27,15.8,26.2,14.9,25.2,15.2z"/>
	<path class="st0" d="M76.5,9.5C76.5,9.5,76.6,9.6,76.5,9.5C76.6,9.6,76.6,9.6,76.5,9.5L76.5,9.5z"/>
	<path class="st0" d="M76.6,9.6c-0.4-0.3-0.9-0.5-1.3-0.3c-0.4,0.1-1.9,1.2-2.6,1.1S69,7.3,68.6,7c-0.8-0.3-1.6-0.4-2.4-0.1
		c-0.9,0.4-1.8,0.9-2.7,1.4c-3.2,1.9-4,5.6-2.7,6s1.2-1.6,1.7-2.4c0.9-0.8,1.8-1.5,2.8-2c-0.4,1.4-0.7,2.9-0.6,4.4
		c0.4,1.5,0.7,6.6-3.3,9.4c-0.2,0.1-0.4,0.3-0.5,0.5c-0.2,0.4-0.1,0.9,0.3,1.1c0.6,0.5,1.5,0.5,2.1,0c2.7-2.2,4.3-5.5,4.5-9
		c1.2,0.6,2.3,1.2,3.3,2c0.1,0.4-0.8,1.6-0.2,2.4l-0.8,1.6c-0.2,0.3-1,1.7-0.9,2.2c0.2,0.5,0.5,0.9,1,1.1c0.6,0.5,1.5,0.5,2.1-0.1
		c0,0,0,0,0-0.1c0.4-0.4-0.2-1.1-0.6-0.7c-0.2,0.3-0.6,0.4-0.9,0.2c-0.2-0.1-0.6-0.3-0.7-0.6c-0.1-0.4,0.5-1.1,0.7-1.6l0.8-1.5
		c0.5,0.1,1.1-0.2,1.2-0.7c0.1-0.3,1.2-2.3,0.8-3.3c-0.5-1-3.4-2.7-3.6-2.8c-0.7-1.3-1.1-2.8-1.1-4.3c0,0,3.3,3.5,5.5,2.1
		c0.8-0.4,1.5-0.9,2.2-1.4C76.8,10.4,76.8,9.9,76.6,9.6z"/>
	<path class="st0" d="M67.8,6.3c1.6-0.2,2.9-1.6,2.8-3.3h0c0.1-1.6-1.1-2.9-2.6-3c-1.6-0.1-2.9,1.1-3,2.6c0,0.1,0,0.3,0,0.4
		C65,4.7,66.2,6.1,67.8,6.3z"/>
</g>
</svg>
