<?xml version="1.0" encoding="utf-8"?>
<!-- Generator: Adobe Illustrator 25.1.0, SVG Export Plug-In . SVG Version: 6.00 Build 0)  -->
<svg version="1.1" id="Layer_1" xmlns="http://www.w3.org/2000/svg" xmlns:xlink="http://www.w3.org/1999/xlink" x="0px" y="0px"
	 viewBox="0 0 46.2 54.8" style="enable-background:new 0 0 46.2 54.8;" xml:space="preserve">
<style type="text/css">
	.st0{fill:#FFFFFF;}
</style>
<g>
	<path class="st0" d="M45.8,50.3c-0.2-0.9-8.1-11.3-9.4-12C35.2,37.6,15,45.2,15,45.2V34.9c9.6-1,17.2-8.4,17.3-17.4
		c0-1.4-1-2.7-2.4-2.9c-1.5-0.2-3,0.8-3.2,2.4c0,0.2,0,0.3,0,0.5c0,6-5,11-11.6,11.8c-1.9,0.1-3.9,0-5.8-0.2l-5-0.4
		c-2.5,0.2-4.3,2.4-4.2,4.9v12.6c-0.3,9.4,9.5,8.6,15,8.3c5.5-0.4,19.3-8.7,19.3-8.7s3.6,3.6,5.6,5.5c2,1.9,2.8,3.5,4.9,2.4
		C47,52.6,46.1,51.2,45.8,50.3z"/>
	<ellipse transform="matrix(0.7071 -0.7071 0.7071 0.7071 5.8943 25.252)" class="st0" cx="33.4" cy="5.5" rx="5.5" ry="5.5"/>
	<path class="st0" d="M7.8,27.5c4,0,7.2-4.5,7.2-8.4h0c0-4-3.1-7.3-7.1-7.3c-4,0-7.3,3.1-7.3,7.1c0,0.1,0,0.1,0,0.2
		C0.6,23,3.8,27.5,7.8,27.5z"/>
</g>
</svg>
